<svg width="337" height="212" viewBox="0 0 337 212" fill="none" xmlns="http://www.w3.org/2000/svg">
<g clip-path="url(#clip0_55_101)">
<rect width="337" height="213" rx="8" fill="white"/>
<path d="M164.537 120.281C162.871 120.281 161.303 119.966 159.838 119.334C158.374 118.702 157.111 117.805 156.05 116.642C154.99 115.479 154.198 114.105 153.675 112.52L158.212 110.403C158.879 111.913 159.802 113.101 160.982 113.969C162.161 114.836 163.465 115.269 164.895 115.269C165.656 115.269 166.311 115.145 166.86 114.897C167.408 114.649 167.836 114.309 168.147 113.876C168.456 113.444 168.612 112.929 168.612 112.335C168.612 111.692 168.42 111.14 168.04 110.682C167.658 110.224 167.062 109.859 166.254 109.586L161.038 107.803C158.917 107.085 157.323 106.064 156.25 104.739C155.178 103.414 154.642 101.824 154.642 99.9658C154.642 98.332 155.028 96.8957 155.804 95.6588C156.578 94.4219 157.662 93.4559 159.054 92.7629C160.448 92.0699 162.05 91.7234 163.86 91.7234C165.456 91.7234 166.933 92.009 168.291 92.5781C169.648 93.1472 170.822 93.9515 171.81 94.9931C172.798 96.0326 173.543 97.2842 174.042 98.7436L169.541 100.86C169.04 99.5731 168.291 98.5651 167.291 97.8344C166.291 97.1036 165.147 96.7382 163.86 96.7382C163.121 96.7382 162.467 96.8621 161.895 97.1099C161.323 97.3577 160.883 97.7105 160.574 98.1682C160.265 98.626 160.109 99.1531 160.109 99.7474C160.109 100.392 160.311 100.955 160.717 101.438C161.121 101.921 161.729 102.299 162.539 102.57L167.648 104.277C169.792 104.995 171.394 105.999 172.454 107.286C173.513 108.574 174.044 110.147 174.044 112.003C174.044 113.614 173.638 115.042 172.83 116.293C172.02 117.543 170.907 118.521 169.489 119.227C168.071 119.933 166.422 120.285 164.541 120.285L164.537 120.281Z" fill="black"/>
<path d="M178.614 94.952H183.973V99.5572H188.761V104.385H183.973V112.147C183.973 112.84 184.093 113.415 184.331 113.873C184.569 114.331 184.939 114.671 185.438 114.893C185.939 115.116 186.557 115.227 187.297 115.227C187.462 115.227 187.654 115.215 187.868 115.19C188.083 115.164 188.551 115.078 188.761 114.994V119.719C188.458 119.814 187.784 119.929 187.331 119.98C186.879 120.03 186.45 120.053 186.044 120.053C183.687 120.053 181.858 119.392 180.559 118.067C179.26 116.741 178.612 114.891 178.612 112.514V104.381H175.462V99.553H178.612V94.9478L178.614 94.952Z" fill="black"/>
<path d="M207.701 102.621C206.998 101.521 206.016 100.66 204.754 100.04C203.491 99.4208 202.039 99.1121 200.394 99.1121C199.012 99.1121 197.738 99.3347 196.572 99.7799C195.404 100.225 194.404 100.857 193.57 101.674C192.736 102.491 192.128 103.47 191.748 104.608L196.035 106.725C196.368 105.834 196.897 105.116 197.624 104.57C198.352 104.026 199.19 103.753 200.144 103.753C201.144 103.753 201.936 104.013 202.519 104.532C203.103 105.053 203.394 105.696 203.394 106.464V107.006L198 107.913C196.451 108.161 195.16 108.581 194.123 109.175C193.087 109.77 192.319 110.507 191.818 111.384C191.317 112.264 191.069 113.272 191.069 114.411C191.069 115.624 191.342 116.67 191.891 117.548C192.439 118.428 193.224 119.102 194.249 119.572C195.273 120.043 196.487 120.278 197.893 120.278C198.942 120.278 199.893 120.135 200.752 119.852C201.608 119.568 202.382 119.133 203.075 118.552C203.307 118.354 203.534 118.14 203.754 117.907V119.833H208.756V106.462C208.756 105 208.404 103.719 207.701 102.619V102.621ZM202.843 113.986C202.473 114.667 201.956 115.206 201.289 115.601C200.622 115.998 199.849 116.196 198.966 116.196C198.299 116.196 197.74 116.023 197.287 115.675C196.835 115.328 196.608 114.845 196.608 114.226C196.608 113.558 196.81 113.043 197.216 112.684C197.62 112.325 198.204 112.071 198.968 111.922L203.398 111.099V111.735C203.398 112.552 203.214 113.302 202.845 113.982L202.843 113.986Z" fill="black"/>
<path d="M228.883 102.768C228.263 101.618 227.4 100.719 226.293 100.076C225.186 99.4335 223.893 99.1101 222.416 99.1101C221.058 99.1101 219.873 99.402 218.86 99.9837C218.036 100.456 217.402 101.143 216.949 102.033V99.5553H211.947V119.833H217.307V107.985C217.307 107.193 217.454 106.513 217.753 105.941C218.05 105.372 218.473 104.927 219.022 104.604C219.57 104.282 220.19 104.121 220.881 104.121C221.572 104.121 222.22 104.282 222.755 104.604C223.291 104.925 223.707 105.372 224.006 105.941C224.303 106.511 224.452 107.191 224.452 107.985V119.833H229.812V106.796C229.812 105.261 229.503 103.917 228.883 102.766V102.768Z" fill="black"/>
<path d="M126.202 85C115.044 85 106 94.4017 106 106C106 117.598 115.044 127 126.202 127C137.36 127 146.404 117.598 146.404 106C146.404 94.4017 137.36 85 126.202 85ZM119.834 96.6445C121.085 95.1304 122.78 94.2379 124.535 94.0006V92.3752C124.535 91.4344 125.277 90.6721 126.194 90.6721C127.111 90.6721 127.853 91.4344 127.853 92.3752V94.3492C128.568 94.6075 129.253 94.9876 129.875 95.4937C129.905 95.5189 130.323 95.8213 130.792 96.1615C131.404 96.6046 132.101 97.1107 132.139 97.1443C132.723 97.6567 132.782 98.5723 132.273 99.1876C131.764 99.8029 130.877 99.889 130.293 99.3766C130.277 99.3619 129.663 98.9209 129.097 98.5135C128.612 98.1649 128.164 97.8415 128.149 97.831C126.297 96.2875 123.537 96.5773 121.945 98.503C120.327 100.46 120.517 103.375 122.37 105.002L125.729 107.955C126.313 108.467 126.372 109.383 125.863 109.998C125.354 110.614 124.467 110.7 123.885 110.187L120.525 107.235C117.509 104.585 117.2 99.8344 119.834 96.6466V96.6445ZM132.57 115.265C131.315 116.784 129.614 117.678 127.853 117.911V119.627C127.853 120.568 127.111 121.33 126.194 121.33C125.277 121.33 124.535 120.568 124.535 119.627V117.556C123.78 117.281 123.061 116.87 122.412 116.319C122.398 116.307 121.927 115.939 121.416 115.538C120.804 115.057 120.131 114.532 120.115 114.518C119.531 114.005 119.473 113.09 119.982 112.474C120.491 111.859 121.378 111.773 121.96 112.285C121.972 112.296 122.669 112.842 123.289 113.327C123.782 113.713 124.224 114.06 124.234 114.068C126.087 115.628 128.859 115.343 130.457 113.411C132.075 111.454 131.885 108.539 130.032 106.911L126.673 103.959C126.089 103.446 126.03 102.531 126.539 101.915C127.048 101.298 127.935 101.214 128.517 101.727L131.877 104.679C134.893 107.329 135.202 112.08 132.568 115.267L132.57 115.265Z" fill="black"/>
<circle cx="11" cy="9" r="2" fill="#FF5F58"/>
<circle cx="19" cy="9" r="2" fill="#FEBC2E"/>
<circle cx="27" cy="9" r="2" fill="#28C840"/>
</g>
<defs>
<clipPath id="clip0_55_101">
<rect width="337" height="212" rx="16" fill="white"/>
</clipPath>
</defs>
</svg>
