<svg width="337" height="212" viewBox="0 0 337 212" fill="none" xmlns="http://www.w3.org/2000/svg">
<g clip-path="url(#clip0_55_119)">
<rect width="337" height="213" rx="8" fill="white"/>
<circle cx="11" cy="9" r="2" fill="#FF5F58"/>
<circle cx="19" cy="9" r="2" fill="#FEBC2E"/>
<circle cx="27" cy="9" r="2" fill="#28C840"/>
<path d="M92 88.9375C92 86.7629 93.7831 85 95.9828 85H130.5C132.7 85 134.483 86.7629 134.483 88.9375V123.062C134.483 125.237 132.7 127 130.5 127H95.9828C93.7831 127 92 125.237 92 123.062V88.9375Z" fill="#09112B"/>
<path fill-rule="evenodd" clip-rule="evenodd" d="M107.931 95.5C102.065 95.5 97.3103 100.201 97.3103 106C97.3103 111.799 102.065 116.5 107.931 116.5H127.845C128.578 116.5 129.172 115.912 129.172 115.188V106C129.172 100.201 124.417 95.5 118.552 95.5H107.931ZM118.552 98.125H107.931C103.532 98.125 99.9655 101.651 99.9655 106C99.9655 110.349 103.532 113.875 107.931 113.875H118.552C122.951 113.875 126.517 110.349 126.517 106C126.517 101.651 122.951 98.125 118.552 98.125ZM115.233 104.688C116.149 104.688 116.892 103.953 116.892 103.047C116.892 102.141 116.149 101.406 115.233 101.406C114.316 101.406 113.573 102.141 113.573 103.047C113.573 103.109 113.577 103.17 113.584 103.23L111.041 104.68C110.765 104.479 110.424 104.359 110.055 104.359C109.139 104.359 108.396 105.094 108.396 106C108.396 106.906 109.139 107.641 110.055 107.641C110.424 107.641 110.765 107.521 111.041 107.32L113.584 108.77C113.577 108.83 113.573 108.891 113.573 108.953C113.573 109.859 114.316 110.594 115.233 110.594C116.149 110.594 116.892 109.859 116.892 108.953C116.892 108.047 116.149 107.312 115.233 107.312C114.864 107.312 114.523 107.432 114.247 107.633L111.704 106.183C111.711 106.123 111.715 106.062 111.715 106C111.715 105.938 111.711 105.877 111.704 105.817L114.247 104.367C114.523 104.568 114.864 104.688 115.233 104.688Z" fill="white"/>
<path fill-rule="evenodd" clip-rule="evenodd" d="M150.767 101.663C150.862 102.345 151.05 102.855 151.33 103.192C151.841 103.807 152.718 104.114 153.959 104.114C154.703 104.114 155.307 104.033 155.77 103.871C156.65 103.56 157.09 102.983 157.09 102.139C157.09 101.646 156.872 101.264 156.436 100.994C155.999 100.731 155.313 100.498 154.379 100.295L152.783 99.941C151.214 99.5899 150.129 99.2083 149.529 98.7965C148.512 98.1077 148.004 97.0307 148.004 95.5654C148.004 94.2285 148.495 93.1177 149.478 92.2331C150.46 91.3485 151.903 90.9062 153.806 90.9062C155.395 90.9062 156.751 91.3232 157.873 92.1571C158.995 92.9911 159.583 94.2014 159.639 95.7882H156.61C156.555 94.8901 156.159 94.2521 155.423 93.8739C154.931 93.6241 154.321 93.4992 153.591 93.4992C152.779 93.4992 152.131 93.6613 151.647 93.9854C151.163 94.3095 150.92 94.7619 150.92 95.3426C150.92 95.876 151.159 96.2744 151.637 96.5378C151.944 96.7133 152.598 96.9193 153.601 97.1556L156.2 97.7734C157.339 98.0436 158.199 98.4048 158.779 98.8572C159.679 99.5595 160.129 100.576 160.129 101.906C160.129 103.27 159.603 104.403 158.549 105.304C157.495 106.206 156.006 106.656 154.082 106.656C152.118 106.656 150.573 106.212 149.447 105.324C148.321 104.436 147.759 103.216 147.759 101.663H150.767ZM164.786 106.271H161.87V91.3418H164.786V106.271ZM170.04 97.9456C169.668 98.3643 169.435 98.9315 169.339 99.6472H173.872C173.824 98.8842 173.591 98.3052 173.171 97.9102C172.752 97.5151 172.231 97.3177 171.611 97.3177C170.936 97.3177 170.412 97.527 170.04 97.9456ZM174.118 95.454C174.861 95.7984 175.475 96.342 175.959 97.0847C176.396 97.7397 176.679 98.4993 176.809 99.3637C176.884 99.8701 176.914 100.599 176.901 101.551H169.268C169.309 102.659 169.66 103.435 170.322 103.881C170.724 104.158 171.208 104.296 171.775 104.296C172.375 104.296 172.863 104.127 173.238 103.79C173.442 103.608 173.623 103.354 173.78 103.03H176.758C176.683 103.685 176.338 104.35 175.724 105.026C174.769 106.099 173.432 106.636 171.713 106.636C170.294 106.636 169.042 106.184 167.958 105.279C166.873 104.374 166.331 102.902 166.331 100.863C166.331 98.9517 166.82 97.4865 167.799 96.4669C168.778 95.4472 170.049 94.9375 171.611 94.9375C172.539 94.9375 173.374 95.1096 174.118 95.454ZM181.276 97.9456C180.904 98.3643 180.67 98.9315 180.575 99.6472H185.108C185.06 98.8842 184.826 98.3052 184.407 97.9102C183.987 97.5151 183.467 97.3177 182.846 97.3177C182.171 97.3177 181.647 97.527 181.276 97.9456ZM185.353 95.454C186.097 95.7984 186.711 96.342 187.195 97.0847C187.631 97.7397 187.915 98.4993 188.044 99.3637C188.119 99.8701 188.15 100.599 188.136 101.551H180.503C180.544 102.659 180.895 103.435 181.557 103.881C181.959 104.158 182.444 104.296 183.01 104.296C183.61 104.296 184.098 104.127 184.473 103.79C184.677 103.608 184.859 103.354 185.015 103.03H187.993C187.918 103.685 187.574 104.35 186.96 105.026C186.004 106.099 184.668 106.636 182.948 106.636C181.53 106.636 180.278 106.184 179.193 105.279C178.109 104.374 177.566 102.902 177.566 100.863C177.566 98.9517 178.055 97.4865 179.035 96.4669C180.014 95.4472 181.284 94.9375 182.846 94.9375C183.774 94.9375 184.61 95.1096 185.353 95.454ZM189.651 91.3924H192.516V99.4345L196.148 95.2818H199.76L195.862 99.5054L199.914 106.271H196.394L193.724 101.551L192.516 102.797V106.271H189.651V91.3924ZM209.927 95.8642C210.66 96.4618 211.027 97.4527 211.027 98.837V106.271H208.039V99.5561C208.039 98.9754 207.96 98.5297 207.803 98.2191C207.517 97.6519 206.971 97.3683 206.166 97.3683C205.177 97.3683 204.498 97.7836 204.13 98.6141C203.939 99.0531 203.844 99.6135 203.844 100.295V106.271H200.938V95.2514H203.752V96.8618C204.127 96.2947 204.481 95.8861 204.816 95.6363C205.416 95.1906 206.176 94.9678 207.097 94.9678C208.25 94.9678 209.193 95.2666 209.927 95.8642ZM220.267 103.334C220.723 102.733 220.952 101.879 220.952 100.772C220.952 99.6641 220.723 98.8116 220.267 98.2141C219.809 97.6165 219.155 97.3177 218.302 97.3177C217.45 97.3177 216.793 97.6165 216.332 98.2141C215.872 98.8116 215.641 99.6641 215.641 100.772C215.641 101.879 215.872 102.733 216.332 103.334C216.793 103.935 217.45 104.236 218.302 104.236C219.155 104.236 219.809 103.935 220.267 103.334ZM222.599 104.929C221.658 106.081 220.229 106.656 218.313 106.656C216.395 106.656 214.966 106.081 214.025 104.929C213.084 103.778 212.613 102.392 212.613 100.772C212.613 99.178 213.084 97.7971 214.025 96.6289C214.966 95.4608 216.395 94.8767 218.313 94.8767C220.229 94.8767 221.658 95.4608 222.599 96.6289C223.541 97.7971 224.012 99.178 224.012 100.772C224.012 102.392 223.541 103.778 222.599 104.929ZM224.534 97.3886V95.3325H226.09V92.2533H228.975V95.3325H230.786V97.3886H228.975V103.223C228.975 103.675 229.033 103.957 229.149 104.068C229.264 104.18 229.62 104.236 230.213 104.236C230.301 104.236 230.396 104.234 230.494 104.23C230.593 104.227 230.69 104.222 230.786 104.215V106.373L229.405 106.423C228.026 106.471 227.085 106.234 226.58 105.714C226.253 105.383 226.09 104.874 226.09 104.185V97.3886H224.534ZM235.069 97.9456C234.697 98.3643 234.463 98.9315 234.368 99.6472H238.9C238.853 98.8842 238.619 98.3052 238.2 97.9102C237.78 97.5151 237.26 97.3177 236.639 97.3177C235.963 97.3177 235.44 97.527 235.069 97.9456ZM239.146 95.454C239.89 95.7984 240.503 96.342 240.988 97.0847C241.424 97.7397 241.707 98.4993 241.837 99.3637C241.912 99.8701 241.943 100.599 241.929 101.551H234.296C234.336 102.659 234.688 103.435 235.35 103.881C235.752 104.158 236.236 104.296 236.802 104.296C237.403 104.296 237.891 104.127 238.266 103.79C238.471 103.608 238.651 103.354 238.808 103.03H241.786C241.711 103.685 241.366 104.35 240.753 105.026C239.798 106.099 238.461 106.636 236.741 106.636C235.322 106.636 234.071 106.184 232.986 105.279C231.902 104.374 231.359 102.902 231.359 100.863C231.359 98.9517 231.849 97.4865 232.828 96.4669C233.806 95.4472 235.077 94.9375 236.639 94.9375C237.567 94.9375 238.402 95.1096 239.146 95.454Z" fill="#09112B"/>
<path d="M148.306 113.725H150.672C151.203 113.725 151.629 113.879 151.95 114.187C152.271 114.495 152.432 114.921 152.432 115.465C152.432 116.009 152.271 116.435 151.95 116.743C151.629 117.051 151.203 117.205 150.672 117.205H149.438V119.125H148.306V113.725ZM149.431 114.707V116.216H150.526C150.75 116.216 150.932 116.151 151.074 116.021C151.215 115.891 151.285 115.706 151.285 115.465C151.285 115.224 151.215 115.039 151.074 114.909C150.932 114.774 150.75 114.707 150.526 114.707H149.431Z" fill="#09112B"/>
<path d="M156.557 113.646C157.385 113.646 158.064 113.901 158.594 114.411C159.125 114.916 159.39 115.588 159.39 116.425C159.39 117.263 159.125 117.936 158.594 118.446C158.064 118.952 157.385 119.204 156.557 119.204C155.725 119.204 155.043 118.952 154.513 118.446C153.982 117.936 153.717 117.263 153.717 116.425C153.717 115.588 153.982 114.916 154.513 114.411C155.043 113.901 155.725 113.646 156.557 113.646ZM156.557 114.635C156.051 114.635 155.642 114.796 155.33 115.119C155.019 115.436 154.863 115.872 154.863 116.425C154.863 116.974 155.019 117.409 155.33 117.732C155.642 118.054 156.051 118.215 156.557 118.215C157.058 118.215 157.463 118.054 157.769 117.732C158.081 117.409 158.237 116.974 158.237 116.425C158.237 115.872 158.081 115.436 157.769 115.119C157.463 114.796 157.058 114.635 156.557 114.635Z" fill="#09112B"/>
<path d="M166.535 119.125H165.586L164.425 115.703L163.264 119.125H162.308L160.402 113.725H161.629L162.797 117.234L163.958 113.725H164.885L166.053 117.234L167.214 113.725H168.441L166.535 119.125Z" fill="#09112B"/>
<path d="M173.311 114.707H170.938V115.877H172.997V116.837H170.938V118.136H173.319V119.125H169.807V113.725H173.311V114.707Z" fill="#09112B"/>
<path d="M178.04 119.125L176.973 117.183H176.061V119.125H174.929V113.725H177.266C177.796 113.725 178.222 113.879 178.543 114.187C178.865 114.491 179.025 114.914 179.025 115.458C179.025 115.828 178.948 116.146 178.792 116.411C178.641 116.671 178.427 116.868 178.149 117.003L179.31 119.125H178.04ZM176.053 116.194H177.127C177.351 116.194 177.531 116.129 177.667 115.999C177.809 115.869 177.879 115.689 177.879 115.458C177.879 115.217 177.809 115.032 177.667 114.902C177.531 114.772 177.351 114.707 177.127 114.707H176.053V116.194Z" fill="#09112B"/>
<path d="M184.326 114.707H181.953V115.877H184.012V116.837H181.953V118.136H184.334V119.125H180.821V113.725H184.326V114.707Z" fill="#09112B"/>
<path d="M185.945 113.725H188.194C188.987 113.725 189.637 113.968 190.143 114.454C190.649 114.936 190.903 115.593 190.903 116.425C190.903 117.258 190.649 117.917 190.143 118.403C189.637 118.884 188.984 119.125 188.186 119.125H185.945V113.725ZM187.069 114.678V118.172H188.201C188.687 118.172 189.072 118.023 189.355 117.725C189.641 117.426 189.785 116.993 189.785 116.425C189.785 115.857 189.644 115.424 189.362 115.126C189.079 114.827 188.692 114.678 188.201 114.678H187.069Z" fill="#09112B"/>
<path d="M194.913 113.725H197.199C197.714 113.725 198.126 113.853 198.433 114.108C198.744 114.363 198.9 114.736 198.9 115.227C198.9 115.698 198.722 116.052 198.367 116.288C198.591 116.375 198.773 116.526 198.914 116.743C199.056 116.959 199.126 117.229 199.126 117.551C199.126 118.057 198.966 118.446 198.644 118.721C198.323 118.99 197.895 119.125 197.359 119.125H194.913V113.725ZM196.038 114.707V115.891H197.126C197.544 115.891 197.754 115.696 197.754 115.306C197.754 115.109 197.692 114.96 197.571 114.859C197.45 114.758 197.282 114.707 197.067 114.707H196.038ZM196.038 116.837V118.136H197.228C197.724 118.136 197.973 117.922 197.973 117.494C197.973 117.272 197.904 117.109 197.768 117.003C197.637 116.892 197.461 116.837 197.242 116.837H196.038Z" fill="#09112B"/>
<path d="M203.337 117.046V119.125H202.213V117.046L200.139 113.725H201.446L202.768 115.941L204.089 113.725H205.404L203.337 117.046Z" fill="#09112B"/>
<path d="M209.14 113.725H211.389C212.182 113.725 212.832 113.968 213.339 114.454C213.845 114.936 214.098 115.593 214.098 116.425C214.098 117.258 213.845 117.917 213.339 118.403C212.832 118.884 212.18 119.125 211.382 119.125H209.14V113.725ZM210.265 114.678V118.172H211.396C211.883 118.172 212.268 118.023 212.55 117.725C212.838 117.426 212.981 116.993 212.981 116.425C212.981 115.857 212.84 115.424 212.557 115.126C212.275 114.827 211.888 114.678 211.396 114.678H210.265Z" fill="#09112B"/>
<path d="M218.842 119.125L217.776 117.183H216.863V119.125H215.732V113.725H218.068C218.599 113.725 219.025 113.879 219.346 114.187C219.667 114.491 219.828 114.914 219.828 115.458C219.828 115.828 219.75 116.146 219.594 116.411C219.444 116.671 219.229 116.868 218.952 117.003L220.113 119.125H218.842ZM216.856 116.194H217.93C218.153 116.194 218.334 116.129 218.47 115.999C218.611 115.869 218.682 115.689 218.682 115.458C218.682 115.217 218.611 115.032 218.47 114.902C218.334 114.772 218.153 114.707 217.93 114.707H216.856V116.194Z" fill="#09112B"/>
<path d="M222.756 119.125H221.624V113.725H222.756V119.125Z" fill="#09112B"/>
<path d="M224.579 113.725H226.945C227.476 113.725 227.902 113.879 228.223 114.187C228.544 114.495 228.705 114.921 228.705 115.465C228.705 116.009 228.544 116.435 228.223 116.743C227.902 117.051 227.476 117.205 226.945 117.205H225.711V119.125H224.579V113.725ZM225.704 114.707V116.216H226.799C227.023 116.216 227.205 116.151 227.347 116.021C227.488 115.891 227.558 115.706 227.558 115.465C227.558 115.224 227.488 115.039 227.347 114.909C227.205 114.774 227.023 114.707 226.799 114.707H225.704Z" fill="#09112B"/>
</g>
<defs>
<clipPath id="clip0_55_119">
<rect width="337" height="212" rx="16" fill="white"/>
</clipPath>
</defs>
</svg>
