<svg xmlns="http://www.w3.org/2000/svg" viewBox="0 0 80 40" width="80" height="40" preserveAspectRatio="xMidYMid meet" style="width: 100%; height: 100%; transform: translate3d(0px, 0px, 0px);"><defs><clipPath id="__lottie_element_16"><rect width="80" height="40" x="0" y="0"></rect></clipPath></defs><g clip-path="url(#__lottie_element_16)"><g transform="matrix(1,0,0,1,23.375999450683594,20.003000259399414)" opacity="1" style="display: block;"><g opacity="1" transform="matrix(1.6666699647903442,0,0,1.6666699647903442,0,0)"><path fill="rgb(0,0,0)" fill-opacity="1" d=" M0.4699999988079071,-7.739999771118164 C0.14000000059604645,-7.420000076293945 0.10999999940395355,-6.920000076293945 0.3799999952316284,-6.559999942779541 C0.3799999952316284,-6.559999942779541 0.46000000834465027,-6.46999979019165 0.46000000834465027,-6.46999979019165 C0.46000000834465027,-6.46999979019165 5.949999809265137,-0.8999999761581421 5.949999809265137,-0.8999999761581421 C5.949999809265137,-0.8999999761581421 -8.100000381469727,-0.8999999761581421 -8.100000381469727,-0.8999999761581421 C-8.600000381469727,-0.8999999761581421 -9,-0.5 -9,0 C-9,0.46000000834465027 -8.65999984741211,0.8399999737739563 -8.210000038146973,0.8899999856948853 C-8.210000038146973,0.8899999856948853 -8.100000381469727,0.8999999761581421 -8.100000381469727,0.8999999761581421 C-8.100000381469727,0.8999999761581421 5.949999809265137,0.8999999761581421 5.949999809265137,0.8999999761581421 C5.949999809265137,0.8999999761581421 0.46000000834465027,6.46999979019165 0.46000000834465027,6.46999979019165 C0.14000000059604645,6.789999961853027 0.11999999731779099,7.300000190734863 0.38999998569488525,7.650000095367432 C0.38999998569488525,7.650000095367432 0.4699999988079071,7.739999771118164 0.4699999988079071,7.739999771118164 C0.7900000214576721,8.0600004196167 1.2999999523162842,8.079999923706055 1.649999976158142,7.809999942779541 C1.649999976158142,7.809999942779541 1.7400000095367432,7.730000019073486 1.7400000095367432,7.730000019073486 C1.7400000095367432,7.730000019073486 8.739999771118164,0.6299999952316284 8.739999771118164,0.6299999952316284 C9.0600004196167,0.3100000023841858 9.079999923706055,-0.1899999976158142 8.819999694824219,-0.5400000214576721 C8.819999694824219,-0.5400000214576721 8.739999771118164,-0.6299999952316284 8.739999771118164,-0.6299999952316284 C8.739999771118164,-0.6299999952316284 1.7400000095367432,-7.730000019073486 1.7400000095367432,-7.730000019073486 C1.3899999856948853,-8.09000015258789 0.8199999928474426,-8.09000015258789 0.4699999988079071,-7.739999771118164"></path></g></g></g></svg>