<svg xmlns="http://www.w3.org/2000/svg" viewBox="0 0 600 400" width="600" height="400" preserveAspectRatio="xMidYMid meet" style="width: 100%; height: 100%; transform: translate3d(0px, 0px, 0px);"><defs><clipPath id="__lottie_element_28"><rect width="600" height="400" x="0" y="0"></rect></clipPath></defs><g clip-path="url(#__lottie_element_28)"><g transform="matrix(0.9631100296974182,0,0,1,299.8708801269531,200)" opacity="1" style="display: block;"><g opacity="1" transform="matrix(0.9955000281333923,0,0,0.9944300055503845,0,0)"><path stroke-linecap="butt" stroke-linejoin="miter" fill-opacity="0" stroke-miterlimit="4" stroke="rgb(0,0,0)" stroke-opacity="1" stroke-width="25" d=" M-37,-61 C-37,-61 -17.0049991607666,-61 -17.0049991607666,-61 C-17.0049991607666,-61 44.19900131225586,76.4260025024414 112.9729995727539,29.006000518798828 C152.7169952392578,1.6019999980926514 127.03600311279297,-55.125 82,-56 C14.062999725341797,-57.319000244140625 12.053999900817871,46.7599983215332 3.9860000610351562,110.02200317382812"></path></g></g><g transform="matrix(0.935479998588562,0,0,1,312.4835510253906,199)" opacity="1" style="display: block;"><g opacity="1" transform="matrix(1,0,0,1,0,0)"><path stroke-linecap="butt" stroke-linejoin="miter" fill-opacity="0" stroke-miterlimit="4" stroke="rgb(0,0,0)" stroke-opacity="1" stroke-width="25" d=" M-132,-71 C-132,-71 -132,5 -132,5 C-132,5 -131,43 -85,43 C-39,43 -39,-5 -39,-5 C-39,-5 -41,-72 -41,-72"></path></g></g></g></svg>